ffmpeg version 2025-06-28-git-cfd1f81e7d-full_build-www.gyan.dev Copyright (c) 2000-2025 the FFmpeg developers
  built with gcc 15.1.0 (Rev4, Built by MSYS2 project)
  configuration: --enable-gpl --enable-version3 --enable-static --disable-w32threads --disable-autodetect --enable-fontconfig --enable-iconv --enable-gnutls --enable-lcms2 --enable-libxml2 --enable-gmp --enable-bzlib --enable-lzma --enable-libsnappy --enable-zlib --enable-librist --enable-libsrt --enable-libssh --enable-libzmq --enable-avisynth --enable-libbluray --enable-libcaca --enable-libdvdnav --enable-libdvdread --enable-sdl2 --enable-libaribb24 --enable-libaribcaption --enable-libdav1d --enable-libdavs2 --enable-libopenjpeg --enable-libquirc --enable-libuavs3d --enable-libxevd --enable-libzvbi --enable-liboapv --enable-libqrencode --enable-librav1e --enable-libsvtav1 --enable-libvvenc --enable-libwebp --enable-libx264 --enable-libx265 --enable-libxavs2 --enable-libxeve --enable-libxvid --enable-libaom --enable-libjxl --enable-libvpx --enable-mediafoundation --enable-libass --enable-frei0r --enable-libfreetype --enable-libfribidi --enable-libharfbuzz --enable-liblensfun --enable-libvidstab --enable-libvmaf --enable-libzimg --enable-amf --enable-cuda-llvm --enable-cuvid --enable-dxva2 --enable-d3d11va --enable-d3d12va --enable-ffnvcodec --enable-libvpl --enable-nvdec --enable-nvenc --enable-vaapi --enable-libshaderc --enable-vulkan --enable-libplacebo --enable-opencl --enable-libcdio --enable-openal --enable-libgme --enable-libmodplug --enable-libopenmpt --enable-libopencore-amrwb --enable-libmp3lame --enable-libshine --enable-libtheora --enable-libtwolame --enable-libvo-amrwbenc --enable-libcodec2 --enable-libilbc --enable-libgsm --enable-liblc3 --enable-libopencore-amrnb --enable-libopus --enable-libspeex --enable-libvorbis --enable-ladspa --enable-libbs2b --enable-libflite --enable-libmysofa --enable-librubberband --enable-libsoxr --enable-chromaprint
  libavutil      60.  3.100 / 60.  3.100
  libavcodec     62.  4.100 / 62.  4.100
  libavformat    62.  1.101 / 62.  1.101
  libavdevice    62.  0.100 / 62.  0.100
  libavfilter    11.  0.100 / 11.  0.100
  libswscale      9.  0.100 /  9.  0.100
  libswresample   6.  0.100 /  6.  0.100
[mov,mp4,m4a,3gp,3g2,mj2 @ 00000173dd7f05c0] Auto-inserting h264_mp4toannexb bitstream filter
Input #0, concat, from 'temp.txt':
  Duration: N/A, start: -0.021333, bitrate: 6974 kb/s
  Stream #0:0(und): Video: h264 (Main) (avc1 / 0x31637661), yuv420p(progressive), 1080x1920 [SAR 1:1 DAR 9:16], 6847 kb/s, 60 fps, 60 tbr, 15360 tbn
    Metadata:
      handler_name    : VideoHandler
      vendor_id       : [0][0][0][0]
      encoder         : Lavc62.4.100 h264_nvenc
  Stream #0:1(und): Audio: aac (LC) (mp4a / 0x6134706D), 48000 Hz, stereo, fltp, 126 kb/s, start -0.021333
    Metadata:
      handler_name    : SoundHandler
      vendor_id       : [0][0][0][0]
Stream mapping:
  Stream #0:0 -> #0:0 (copy)
  Stream #0:1 -> #0:1 (copy)
Output #0, mp4, to 'temp_21616.mp4':
  Metadata:
    encoder         : Lavf62.1.101
  Stream #0:0(und): Video: h264 (Main) (avc1 / 0x31637661), yuv420p(progressive), 1080x1920 [SAR 1:1 DAR 9:16], q=2-31, 6847 kb/s, 60 fps, 60 tbr, 15360 tbn
    Metadata:
      handler_name    : VideoHandler
      vendor_id       : [0][0][0][0]
      encoder         : Lavc62.4.100 h264_nvenc
  Stream #0:1(und): Audio: aac (LC) (mp4a / 0x6134706D), 48000 Hz, stereo, fltp, 126 kb/s
    Metadata:
      handler_name    : SoundHandler
      vendor_id       : [0][0][0][0]
Press [q] to stop, [?] for help
frame=   19 fps=0.0 q=-1.0 size=       0KiB time=00:00:00.36 bitrate=   1.1kbits/s speed= 0.7x elapsed=0:00:00.51    frame=   19 fps= 19 q=-1.0 size=       0KiB time=00:00:00.36 bitrate=   1.1kbits/s speed=0.354x elapsed=0:00:01.02    frame=   19 fps= 12 q=-1.0 size=       0KiB time=00:00:00.36 bitrate=   1.1kbits/s speed=0.235x elapsed=0:00:01.54    frame=   19 fps=9.2 q=-1.0 size=       0KiB time=00:00:00.36 bitrate=   1.1kbits/s speed=0.176x elapsed=0:00:02.05    frame=   19 fps=7.4 q=-1.0 size=       0KiB time=00:00:00.36 bitrate=   1.1kbits/s speed=0.141x elapsed=0:00:02.57    [mov,mp4,m4a,3gp,3g2,mj2 @ 00000173dd80d900] Auto-inserting h264_mp4toannexb bitstream filter
[mov,mp4,m4a,3gp,3g2,mj2 @ 00000173dd80d140] Auto-inserting h264_mp4toannexb bitstream filter
[mov,mp4,m4a,3gp,3g2,mj2 @ 00000173dd80d900] Auto-inserting h264_mp4toannexb bitstream filter
[mov,mp4,m4a,3gp,3g2,mj2 @ 00000173ddd08e00] Auto-inserting h264_mp4toannexb bitstream filter
frame= 2400 fps=695 q=-1.0 size=   32000KiB time=00:00:39.97 bitrate=6558.3kbits/s speed=11.6x elapsed=0:00:03.45    frame= 2400 fps=605 q=-1.0 size=   32000KiB time=00:00:39.97 bitrate=6558.3kbits/s speed=10.1x elapsed=0:00:03.96    frame= 2400 fps=535 q=-1.0 size=   32000KiB time=00:00:39.97 bitrate=6558.3kbits/s speed=8.91x elapsed=0:00:04.48    frame= 2400 fps=480 q=-1.0 size=   32000KiB time=00:00:39.97 bitrate=6558.3kbits/s speed=   8x elapsed=0:00:04.99    frame= 2400 fps=435 q=-1.0 size=   32000KiB time=00:00:39.97 bitrate=6558.3kbits/s speed=7.24x elapsed=0:00:05.51    frame= 2400 fps=398 q=-1.0 size=   32000KiB time=00:00:39.97 bitrate=6558.3kbits/s speed=6.63x elapsed=0:00:06.03    frame= 2400 fps=366 q=-1.0 size=   32000KiB time=00:00:39.97 bitrate=6558.3kbits/s speed= 6.1x elapsed=0:00:06.55    frame= 2400 fps=340 q=-1.0 size=   32000KiB time=00:00:39.97 bitrate=6558.3kbits/s speed=5.66x elapsed=0:00:07.06    frame= 2400 fps=317 q=-1.0 size=   32000KiB time=00:00:39.97 bitrate=6558.3kbits/s speed=5.27x elapsed=0:00:07.58    frame= 2400 fps=297 q=-1.0 size=   32000KiB time=00:00:39.97 bitrate=6558.3kbits/s speed=4.94x elapsed=0:00:08.09    frame= 2400 fps=279 q=-1.0 size=   32000KiB time=00:00:39.97 bitrate=6558.3kbits/s speed=4.64x elapsed=0:00:08.61    frame= 2400 fps=263 q=-1.0 size=   32000KiB time=00:00:39.97 bitrate=6558.3kbits/s speed=4.38x elapsed=0:00:09.12    frame= 2400 fps=249 q=-1.0 size=   32000KiB time=00:00:39.97 bitrate=6558.3kbits/s speed=4.15x elapsed=0:00:09.63    frame= 2400 fps=236 q=-1.0 size=   32000KiB time=00:00:39.97 bitrate=6558.3kbits/s speed=3.93x elapsed=0:00:10.16    frame= 2400 fps=225 q=-1.0 size=   32000KiB time=00:00:39.97 bitrate=6558.3kbits/s speed=3.75x elapsed=0:00:10.66    frame= 2400 fps=215 q=-1.0 size=   32000KiB time=00:00:39.97 bitrate=6558.3kbits/s speed=3.58x elapsed=0:00:11.18    frame= 2400 fps=205 q=-1.0 size=   32000KiB time=00:00:39.97 bitrate=6558.3kbits/s speed=3.42x elapsed=0:00:11.70    frame= 2400 fps=196 q=-1.0 size=   32000KiB time=00:00:39.97 bitrate=6558.3kbits/s speed=3.27x elapsed=0:00:12.21    frame= 2400 fps=189 q=-1.0 size=   32000KiB time=00:00:39.97 bitrate=6558.3kbits/s speed=3.14x elapsed=0:00:12.72    frame= 2400 fps=181 q=-1.0 size=   32000KiB time=00:00:39.97 bitrate=6558.3kbits/s speed=3.02x elapsed=0:00:13.25    frame= 2400 fps=174 q=-1.0 size=   32000KiB time=00:00:39.97 bitrate=6558.3kbits/s speed= 2.9x elapsed=0:00:13.76    [mov,mp4,m4a,3gp,3g2,mj2 @ 00000173dd80cf80] Auto-inserting h264_mp4toannexb bitstream filter
frame= 2880 fps=202 q=-1.0 size=   38144KiB time=00:00:47.97 bitrate=6513.8kbits/s speed=3.36x elapsed=0:00:14.27    [mov,mp4,m4a,3gp,3g2,mj2 @ 00000173dd80e9c0] Auto-inserting h264_mp4toannexb bitstream filter
frame= 3360 fps=227 q=-1.0 size=   46336KiB time=00:00:55.97 bitrate=6781.8kbits/s speed=3.78x elapsed=0:00:14.80    frame= 3360 fps=220 q=-1.0 size=   46336KiB time=00:00:55.97 bitrate=6781.8kbits/s speed=3.66x elapsed=0:00:15.30    frame= 3360 fps=212 q=-1.0 size=   46336KiB time=00:00:55.97 bitrate=6781.8kbits/s speed=3.53x elapsed=0:00:15.83    frame= 3360 fps=206 q=-1.0 size=   46336KiB time=00:00:55.97 bitrate=6781.8kbits/s speed=3.43x elapsed=0:00:16.33    frame= 3360 fps=199 q=-1.0 size=   46336KiB time=00:00:55.97 bitrate=6781.8kbits/s speed=3.32x elapsed=0:00:16.86    frame= 3360 fps=193 q=-1.0 size=   46336KiB time=00:00:55.97 bitrate=6781.8kbits/s speed=3.22x elapsed=0:00:17.38    frame= 3360 fps=188 q=-1.0 size=   46336KiB time=00:00:55.97 bitrate=6781.8kbits/s speed=3.13x elapsed=0:00:17.88    frame= 3360 fps=183 q=-1.0 size=   46336KiB time=00:00:55.97 bitrate=6781.8kbits/s speed=3.04x elapsed=0:00:18.39    frame= 3360 fps=178 q=-1.0 size=   46336KiB time=00:00:55.97 bitrate=6781.8kbits/s speed=2.96x elapsed=0:00:18.92    frame= 3360 fps=173 q=-1.0 size=   46336KiB time=00:00:55.97 bitrate=6781.8kbits/s speed=2.88x elapsed=0:00:19.43    frame= 3360 fps=168 q=-1.0 size=   46336KiB time=00:00:55.97 bitrate=6781.8kbits/s speed=2.81x elapsed=0:00:19.94    frame= 3360 fps=164 q=-1.0 size=   46336KiB time=00:00:55.97 bitrate=6781.8kbits/s speed=2.74x elapsed=0:00:20.46    frame= 3360 fps=160 q=-1.0 size=   46336KiB time=00:00:55.97 bitrate=6781.8kbits/s speed=2.67x elapsed=0:00:20.97    frame= 3360 fps=156 q=-1.0 size=   46336KiB time=00:00:55.97 bitrate=6781.8kbits/s speed= 2.6x elapsed=0:00:21.50    frame= 3360 fps=153 q=-1.0 size=   46336KiB time=00:00:55.97 bitrate=6781.8kbits/s speed=2.54x elapsed=0:00:22.01    frame= 3360 fps=149 q=-1.0 size=   46336KiB time=00:00:55.97 bitrate=6781.8kbits/s speed=2.48x elapsed=0:00:22.53    frame= 3360 fps=146 q=-1.0 size=   46336KiB time=00:00:55.97 bitrate=6781.8kbits/s speed=2.43x elapsed=0:00:23.04    frame= 3360 fps=143 q=-1.0 size=   46336KiB time=00:00:55.97 bitrate=6781.8kbits/s speed=2.38x elapsed=0:00:23.55    frame= 3360 fps=140 q=-1.0 size=   46336KiB time=00:00:55.97 bitrate=6781.8kbits/s speed=2.32x elapsed=0:00:24.08    frame= 3360 fps=137 q=-1.0 size=   46336KiB time=00:00:55.97 bitrate=6781.8kbits/s speed=2.28x elapsed=0:00:24.59    frame= 3360 fps=134 q=-1.0 size=   46336KiB time=00:00:55.97 bitrate=6781.8kbits/s speed=2.23x elapsed=0:00:25.10    frame= 3360 fps=131 q=-1.0 size=   46336KiB time=00:00:55.97 bitrate=6781.8kbits/s speed=2.18x elapsed=0:00:25.62    frame= 3360 fps=129 q=-1.0 size=   46336KiB time=00:00:55.97 bitrate=6781.8kbits/s speed=2.14x elapsed=0:00:26.13    frame= 3360 fps=126 q=-1.0 size=   46336KiB time=00:00:55.97 bitrate=6781.8kbits/s speed= 2.1x elapsed=0:00:26.65    frame= 3360 fps=124 q=-1.0 size=   46336KiB time=00:00:55.97 bitrate=6781.8kbits/s speed=2.06x elapsed=0:00:27.17    frame= 3360 fps=121 q=-1.0 size=   46336KiB time=00:00:55.97 bitrate=6781.8kbits/s speed=2.02x elapsed=0:00:27.68    frame= 3360 fps=119 q=-1.0 size=   46336KiB time=00:00:55.97 bitrate=6781.8kbits/s speed=1.99x elapsed=0:00:28.19    frame= 3360 fps=117 q=-1.0 size=   46336KiB time=00:00:55.97 bitrate=6781.8kbits/s speed=1.95x elapsed=0:00:28.72    frame= 3360 fps=115 q=-1.0 size=   46336KiB time=00:00:55.97 bitrate=6781.8kbits/s speed=1.91x elapsed=0:00:29.23    frame= 3360 fps=113 q=-1.0 size=   46336KiB time=00:00:55.97 bitrate=6781.8kbits/s speed=1.88x elapsed=0:00:29.75    frame= 3360 fps=111 q=-1.0 size=   46336KiB time=00:00:55.97 bitrate=6781.8kbits/s speed=1.85x elapsed=0:00:30.26    frame= 3360 fps=109 q=-1.0 size=   46336KiB time=00:00:55.97 bitrate=6781.8kbits/s speed=1.82x elapsed=0:00:30.78    frame= 3360 fps=107 q=-1.0 size=   46336KiB time=00:00:55.97 bitrate=6781.8kbits/s speed=1.79x elapsed=0:00:31.29    frame= 3360 fps=106 q=-1.0 size=   46336KiB time=00:00:55.97 bitrate=6781.8kbits/s speed=1.76x elapsed=0:00:31.80    frame= 3360 fps=104 q=-1.0 size=   46336KiB time=00:00:55.97 bitrate=6781.8kbits/s speed=1.73x elapsed=0:00:32.32    frame= 3360 fps=102 q=-1.0 size=   46336KiB time=00:00:55.97 bitrate=6781.8kbits/s speed= 1.7x elapsed=0:00:32.85    frame= 3360 fps=101 q=-1.0 size=   46336KiB time=00:00:55.97 bitrate=6781.8kbits/s speed=1.68x elapsed=0:00:33.35    frame= 3360 fps= 99 q=-1.0 size=   46336KiB time=00:00:55.97 bitrate=6781.8kbits/s speed=1.65x elapsed=0:00:33.87    frame= 3360 fps= 98 q=-1.0 size=   46336KiB time=00:00:55.97 bitrate=6781.8kbits/s speed=1.63x elapsed=0:00:34.38    frame= 3360 fps= 96 q=-1.0 size=   46336KiB time=00:00:55.97 bitrate=6781.8kbits/s speed= 1.6x elapsed=0:00:34.90    frame= 3360 fps= 95 q=-1.0 size=   46336KiB time=00:00:55.97 bitrate=6781.8kbits/s speed=1.58x elapsed=0:00:35.42    frame= 3360 fps= 94 q=-1.0 size=   46336KiB time=00:00:55.97 bitrate=6781.8kbits/s speed=1.56x elapsed=0:00:35.93    frame= 3360 fps= 92 q=-1.0 size=   46336KiB time=00:00:55.97 bitrate=6781.8kbits/s speed=1.54x elapsed=0:00:36.44    frame= 3360 fps= 91 q=-1.0 size=   46336KiB time=00:00:55.97 bitrate=6781.8kbits/s speed=1.51x elapsed=0:00:36.97    frame= 3360 fps= 90 q=-1.0 size=   46336KiB time=00:00:55.97 bitrate=6781.8kbits/s speed=1.49x elapsed=0:00:37.48    frame= 3360 fps= 88 q=-1.0 size=   46336KiB time=00:00:55.97 bitrate=6781.8kbits/s speed=1.47x elapsed=0:00:37.99    frame= 3360 fps= 87 q=-1.0 size=   46336KiB time=00:00:55.97 bitrate=6781.8kbits/s speed=1.45x elapsed=0:00:38.51    frame= 3360 fps= 86 q=-1.0 size=   46336KiB time=00:00:55.97 bitrate=6781.8kbits/s speed=1.43x elapsed=0:00:39.03    [mov,mp4,m4a,3gp,3g2,mj2 @ 00000173dd80d4c0] Auto-inserting h264_mp4toannexb bitstream filter
[mov,mp4,m4a,3gp,3g2,mj2 @ 00000173dd854cc0] Auto-inserting h264_mp4toannexb bitstream filter
frame= 4320 fps=109 q=-1.0 size=   58880KiB time=00:01:11.97 bitrate=6701.9kbits/s speed=1.82x elapsed=0:00:39.55    frame= 4320 fps=108 q=-1.0 size=   58880KiB time=00:01:11.97 bitrate=6701.9kbits/s speed= 1.8x elapsed=0:00:40.06    frame= 4320 fps=106 q=-1.0 size=   58880KiB time=00:01:11.97 bitrate=6701.9kbits/s speed=1.77x elapsed=0:00:40.57    frame= 4320 fps=105 q=-1.0 size=   58880KiB time=00:01:11.97 bitrate=6701.9kbits/s speed=1.75x elapsed=0:00:41.09    frame= 4320 fps=104 q=-1.0 size=   58880KiB time=00:01:11.97 bitrate=6701.9kbits/s speed=1.73x elapsed=0:00:41.61    frame= 4320 fps=103 q=-1.0 size=   58880KiB time=00:01:11.97 bitrate=6701.9kbits/s speed=1.71x elapsed=0:00:42.13    frame= 4320 fps=101 q=-1.0 size=   58880KiB time=00:01:11.97 bitrate=6701.9kbits/s speed=1.69x elapsed=0:00:42.63    frame= 4320 fps=100 q=-1.0 size=   58880KiB time=00:01:11.97 bitrate=6701.9kbits/s speed=1.67x elapsed=0:00:43.15    frame= 4320 fps= 99 q=-1.0 size=   58880KiB time=00:01:11.97 bitrate=6701.9kbits/s speed=1.65x elapsed=0:00:43.67    frame= 4320 fps= 98 q=-1.0 size=   58880KiB time=00:01:11.97 bitrate=6701.9kbits/s speed=1.63x elapsed=0:00:44.19    frame= 4320 fps= 97 q=-1.0 size=   58880KiB time=00:01:11.97 bitrate=6701.9kbits/s speed=1.61x elapsed=0:00:44.69    [mov,mp4,m4a,3gp,3g2,mj2 @ 00000173dd854240] Auto-inserting h264_mp4toannexb bitstream filter
[out#0/mp4 @ 00000173dd7d3740] video:64392KiB audio:1076KiB subtitle:0KiB other streams:0KiB global headers:0KiB muxing overhead: 0.200611%
frame= 4800 fps= 64 q=-1.0 Lsize=   65599KiB time=00:01:19.97 bitrate=6719.8kbits/s speed=1.07x elapsed=0:01:14.83    
